<svg xmlns="http://www.w3.org/2000/svg" width="1440" height="900" viewBox="0 0 1440 900">
<title>App — Resume (/app/resume)</title>
<rect width="100%" height="100%" fill="#FFFFFF"/>
<rect x="0" y="0" width="1440" height="64" rx="0" fill="#FFFFFF" stroke="#E5E7EB" />
<text x="24" y="40" font-family="Inter, Arial" font-size="20" font-weight="bold" fill="#111827">AlignCV — App</text>
<rect x="0" y="64" width="240" height="836" rx="0" fill="#F9FAFB" stroke="#E5E7EB" />
<text x="24" y="96" font-family="Inter, Arial" font-size="16" font-weight="bold" fill="#111827">Dashboard</text>
<text x="24" y="136" font-family="Inter, Arial" font-size="16" font-weight="bold" fill="#111827">Resume</text>
<text x="24" y="176" font-family="Inter, Arial" font-size="16" font-weight="bold" fill="#111827">Cover Letter</text>
<rect x="16" y="820" width="208" height="60" rx="12" fill="#FFFFFF" stroke="#D1D5DB" />
<circle cx="42" cy="850" r="14" fill="#93C5FD" stroke="#93C5FD" />
<text x="64" y="856" font-family="Inter, Arial" font-size="14" font-weight="bold" fill="#111827">Profile</text>
<rect x="240" y="64" width="1200" height="836" rx="0" fill="#FFFFFF" stroke="#E5E7EB" />
<text x="268" y="108" font-family="Inter, Arial" font-size="24" font-weight="bold" fill="#111827">Resume</text>
<rect x="268" y="132" width="1116" height="96" rx="16" fill="#DBEAFE" stroke="#93C5FD" />
<text x="288" y="168" font-family="Inter, Arial" font-size="18" font-weight="bold" fill="#111827">Create new resume</text>
<text x="288" y="196" font-family="Inter, Arial" font-size="14" font-weight="normal" fill="#374151">Start with a template or blank canvas.</text>
<rect x="980" y="160" width="180" height="40" rx="10" fill="#2563EB" stroke="#06B6D4" />
<text x="1012" y="186" font-family="Inter, Arial" font-size="14" font-weight="bold" fill="#FFFFFF">New Resume</text>
<text x="268" y="260" font-family="Inter, Arial" font-size="18" font-weight="bold" fill="#111827">Your resumes</text>
<rect x="268" y="288" width="352" height="160" rx="12" fill="#FFFFFF" stroke="#D1D5DB" />
<text x="284" y="324" font-family="Inter, Arial" font-size="16" font-weight="bold" fill="#111827">Resume 1</text>
<text x="284" y="348" font-family="Inter, Arial" font-size="12" font-weight="normal" fill="#6B7280">Updated 3d ago</text>
<rect x="284" y="380" width="120" height="32" rx="8" fill="#FFFFFF" stroke="#D1D5DB" />
<text x="308" y="402" font-family="Inter, Arial" font-size="12" font-weight="bold" fill="#111827">Open →</text>
<rect x="640" y="288" width="352" height="160" rx="12" fill="#FFFFFF" stroke="#D1D5DB" />
<text x="656" y="324" font-family="Inter, Arial" font-size="16" font-weight="bold" fill="#111827">Resume 2</text>
<text x="656" y="348" font-family="Inter, Arial" font-size="12" font-weight="normal" fill="#6B7280">Updated 3d ago</text>
<rect x="656" y="380" width="120" height="32" rx="8" fill="#FFFFFF" stroke="#D1D5DB" />
<text x="680" y="402" font-family="Inter, Arial" font-size="12" font-weight="bold" fill="#111827">Open →</text>
<rect x="1012" y="288" width="352" height="160" rx="12" fill="#FFFFFF" stroke="#D1D5DB" />
<text x="1028" y="324" font-family="Inter, Arial" font-size="16" font-weight="bold" fill="#111827">Resume 3</text>
<text x="1028" y="348" font-family="Inter, Arial" font-size="12" font-weight="normal" fill="#6B7280">Updated 3d ago</text>
<rect x="1028" y="380" width="120" height="32" rx="8" fill="#FFFFFF" stroke="#D1D5DB" />
<text x="1052" y="402" font-family="Inter, Arial" font-size="12" font-weight="bold" fill="#111827">Open →</text>
<rect x="268" y="468" width="352" height="160" rx="12" fill="#FFFFFF" stroke="#D1D5DB" />
<text x="284" y="504" font-family="Inter, Arial" font-size="16" font-weight="bold" fill="#111827">Resume 4</text>
<text x="284" y="528" font-family="Inter, Arial" font-size="12" font-weight="normal" fill="#6B7280">Updated 3d ago</text>
<rect x="284" y="560" width="120" height="32" rx="8" fill="#FFFFFF" stroke="#D1D5DB" />
<text x="308" y="582" font-family="Inter, Arial" font-size="12" font-weight="bold" fill="#111827">Open →</text>
<rect x="640" y="468" width="352" height="160" rx="12" fill="#FFFFFF" stroke="#D1D5DB" />
<text x="656" y="504" font-family="Inter, Arial" font-size="16" font-weight="bold" fill="#111827">Resume 5</text>
<text x="656" y="528" font-family="Inter, Arial" font-size="12" font-weight="normal" fill="#6B7280">Updated 3d ago</text>
<rect x="656" y="560" width="120" height="32" rx="8" fill="#FFFFFF" stroke="#D1D5DB" />
<text x="680" y="582" font-family="Inter, Arial" font-size="12" font-weight="bold" fill="#111827">Open →</text>
<rect x="1012" y="468" width="352" height="160" rx="12" fill="#FFFFFF" stroke="#D1D5DB" />
<text x="1028" y="504" font-family="Inter, Arial" font-size="16" font-weight="bold" fill="#111827">Resume 6</text>
<text x="1028" y="528" font-family="Inter, Arial" font-size="12" font-weight="normal" fill="#6B7280">Updated 3d ago</text>
<rect x="1028" y="560" width="120" height="32" rx="8" fill="#FFFFFF" stroke="#D1D5DB" />
<text x="1052" y="582" font-family="Inter, Arial" font-size="12" font-weight="bold" fill="#111827">Open →</text>
</svg>