<svg xmlns="http://www.w3.org/2000/svg" width="1440" height="900" viewBox="0 0 1440 900">
<title>App — Home (/app/home)</title>
<rect width="100%" height="100%" fill="#FFFFFF"/>
<rect x="0" y="0" width="1440" height="64" rx="0" fill="#FFFFFF" stroke="#E5E7EB" />
<text x="24" y="40" font-family="Inter, Arial" font-size="20" font-weight="bold" fill="#111827">AlignCV — App</text>
<rect x="0" y="64" width="240" height="836" rx="0" fill="#F9FAFB" stroke="#E5E7EB" />
<text x="24" y="96" font-family="Inter, Arial" font-size="16" font-weight="bold" fill="#111827">Dashboard</text>
<text x="24" y="136" font-family="Inter, Arial" font-size="16" font-weight="bold" fill="#111827">Resume</text>
<text x="24" y="176" font-family="Inter, Arial" font-size="16" font-weight="bold" fill="#111827">Cover Letter</text>
<rect x="16" y="820" width="208" height="60" rx="12" fill="#FFFFFF" stroke="#D1D5DB" />
<circle cx="42" cy="850" r="14" fill="#93C5FD" stroke="#93C5FD" />
<text x="64" y="856" font-family="Inter, Arial" font-size="14" font-weight="bold" fill="#111827">Profile</text>
<rect x="240" y="64" width="1200" height="836" rx="0" fill="#FFFFFF" stroke="#E5E7EB" />
<text x="268" y="108" font-family="Inter, Arial" font-size="24" font-weight="bold" fill="#111827">Dashboard</text>
<rect x="268" y="132" width="544" height="220" rx="16" fill="#FFFFFF" stroke="#D1D5DB" />
<text x="288" y="172" font-family="Inter, Arial" font-size="18" font-weight="bold" fill="#111827">Resume — quick access</text>
<text x="288" y="198" font-family="Inter, Arial" font-size="14" font-weight="normal" fill="#374151">Create new or continue editing.</text>
<rect x="288" y="220" width="180" height="40" rx="10" fill="#2563EB" stroke="#06B6D4" />
<text x="318" y="246" font-family="Inter, Arial" font-size="14" font-weight="bold" fill="#FFFFFF">New Resume →</text>
<rect x="840" y="132" width="544" height="220" rx="16" fill="#FFFFFF" stroke="#D1D5DB" />
<text x="860" y="172" font-family="Inter, Arial" font-size="18" font-weight="bold" fill="#111827">Cover Letter — quick access</text>
<text x="860" y="198" font-family="Inter, Arial" font-size="14" font-weight="normal" fill="#374151">Start fresh or from resume.</text>
<rect x="860" y="220" width="220" height="40" rx="10" fill="#2563EB" stroke="#06B6D4" />
<text x="900" y="246" font-family="Inter, Arial" font-size="14" font-weight="bold" fill="#FFFFFF">New Cover Letter →</text>
<text x="268" y="388" font-family="Inter, Arial" font-size="18" font-weight="bold" fill="#111827">Recent items</text>
<rect x="268" y="414" width="1116" height="64" rx="12" fill="#FFFFFF" stroke="#D1D5DB" />
<text x="288" y="454" font-family="Inter, Arial" font-size="14" font-weight="normal" fill="#111827">Resume · Frontend Engineer — v3</text>
<text x="1020" y="454" font-family="Inter, Arial" font-size="14" font-weight="bold" fill="#2563EB">Open →</text>
<rect x="268" y="490" width="1116" height="64" rx="12" fill="#FFFFFF" stroke="#D1D5DB" />
<text x="288" y="530" font-family="Inter, Arial" font-size="14" font-weight="normal" fill="#111827">Resume · Frontend Engineer — v4</text>
<text x="1020" y="530" font-family="Inter, Arial" font-size="14" font-weight="bold" fill="#2563EB">Open →</text>
<rect x="268" y="566" width="1116" height="64" rx="12" fill="#FFFFFF" stroke="#D1D5DB" />
<text x="288" y="606" font-family="Inter, Arial" font-size="14" font-weight="normal" fill="#111827">Resume · Frontend Engineer — v5</text>
<text x="1020" y="606" font-family="Inter, Arial" font-size="14" font-weight="bold" fill="#2563EB">Open →</text>
</svg>