<svg xmlns="http://www.w3.org/2000/svg" width="1440" height="900" viewBox="0 0 1440 900">
<title>App — Cover (/app/cover-letter)</title>
<rect width="100%" height="100%" fill="#FFFFFF"/>
<rect x="0" y="0" width="1440" height="64" rx="0" fill="#FFFFFF" stroke="#E5E7EB" />
<text x="24" y="40" font-family="Inter, Arial" font-size="20" font-weight="bold" fill="#111827">AlignCV — App</text>
<rect x="0" y="64" width="240" height="836" rx="0" fill="#F9FAFB" stroke="#E5E7EB" />
<text x="24" y="96" font-family="Inter, Arial" font-size="16" font-weight="bold" fill="#111827">Dashboard</text>
<text x="24" y="136" font-family="Inter, Arial" font-size="16" font-weight="bold" fill="#111827">Resume</text>
<text x="24" y="176" font-family="Inter, Arial" font-size="16" font-weight="bold" fill="#111827">Cover Letter</text>
<rect x="16" y="820" width="208" height="60" rx="12" fill="#FFFFFF" stroke="#D1D5DB" />
<circle cx="42" cy="850" r="14" fill="#93C5FD" stroke="#93C5FD" />
<text x="64" y="856" font-family="Inter, Arial" font-size="14" font-weight="bold" fill="#111827">Profile</text>
<rect x="240" y="64" width="1200" height="836" rx="0" fill="#FFFFFF" stroke="#E5E7EB" />
<text x="268" y="108" font-family="Inter, Arial" font-size="24" font-weight="bold" fill="#111827">Cover Letter</text>
<rect x="268" y="132" width="1116" height="96" rx="16" fill="#DBEAFE" stroke="#93C5FD" />
<text x="288" y="168" font-family="Inter, Arial" font-size="18" font-weight="bold" fill="#111827">Create new cover letter</text>
<text x="288" y="196" font-family="Inter, Arial" font-size="14" font-weight="normal" fill="#374151">Start from your resume or a template.</text>
<rect x="980" y="160" width="220" height="40" rx="10" fill="#2563EB" stroke="#06B6D4" />
<text x="1010" y="186" font-family="Inter, Arial" font-size="14" font-weight="bold" fill="#FFFFFF">New Cover Letter</text>
<text x="268" y="260" font-family="Inter, Arial" font-size="18" font-weight="bold" fill="#111827">Your cover letters</text>
<rect x="268" y="288" width="1116" height="64" rx="12" fill="#FFFFFF" stroke="#D1D5DB" />
<text x="288" y="328" font-family="Inter, Arial" font-size="14" font-weight="normal" fill="#111827">Cover Letter · Backend SWE — v1</text>
<text x="1020" y="328" font-family="Inter, Arial" font-size="14" font-weight="bold" fill="#2563EB">Open →</text>
<rect x="268" y="364" width="1116" height="64" rx="12" fill="#FFFFFF" stroke="#D1D5DB" />
<text x="288" y="404" font-family="Inter, Arial" font-size="14" font-weight="normal" fill="#111827">Cover Letter · Backend SWE — v2</text>
<text x="1020" y="404" font-family="Inter, Arial" font-size="14" font-weight="bold" fill="#2563EB">Open →</text>
<rect x="268" y="440" width="1116" height="64" rx="12" fill="#FFFFFF" stroke="#D1D5DB" />
<text x="288" y="480" font-family="Inter, Arial" font-size="14" font-weight="normal" fill="#111827">Cover Letter · Backend SWE — v3</text>
<text x="1020" y="480" font-family="Inter, Arial" font-size="14" font-weight="bold" fill="#2563EB">Open →</text>
<rect x="268" y="516" width="1116" height="64" rx="12" fill="#FFFFFF" stroke="#D1D5DB" />
<text x="288" y="556" font-family="Inter, Arial" font-size="14" font-weight="normal" fill="#111827">Cover Letter · Backend SWE — v4</text>
<text x="1020" y="556" font-family="Inter, Arial" font-size="14" font-weight="bold" fill="#2563EB">Open →</text>
</svg>