<svg xmlns="http://www.w3.org/2000/svg" width="1440" height="1024" viewBox="0 0 1440 1024">
<rect width="100%" height="100%" fill="#FFFFFF"/>
<rect x="0" y="0" width="1440" height="1024" rx="0" fill="#FFFFFF" stroke="#FFFFFF"/><text x="24" y="34" font-family="Inter, Arial" font-size="16" font-weight="bold" fill="#111827">AlignCV — Editor Wireframe v2 (Upload + LinkedIn buttons, one-line toolbar)</text><rect x="0" y="56" width="560" height="968" rx="0" fill="#F9FAFB" stroke="#E5E7EB"/><text x="24" y="84" font-family="Inter, Arial" font-size="14" font-weight="bold" fill="#111827">Editor</text><rect x="24" y="96" width="512" height="72" rx="12" fill="#FFFFFF" stroke="#E5E7EB"/><rect x="40" y="112" width="232" height="40" rx="12" fill="#FFFFFF" stroke="#CBD5E1"/><text x="56" y="137" font-family="Inter, Arial" font-size="12" font-weight="bold" fill="#111827">⬆ Upload existing resume</text><rect x="296" y="112" width="232" height="40" rx="12" fill="#FFFFFF" stroke="#CBD5E1"/><text x="314" y="137" font-family="Inter, Arial" font-size="12" font-weight="bold" fill="#111827">in  Import LinkedIn profile</text><rect x="24" y="184" width="512" height="44" rx="10" fill="#FFFFFF" stroke="#E5E7EB"/><text x="40" y="212" font-family="Inter, Arial" font-size="12" font-weight="bold" fill="#111827">Personal details</text><text x="512" y="212" font-family="Inter, Arial" font-size="12" font-weight="bold" fill="#6B7280">▾</text><rect x="24" y="240" width="512" height="44" rx="10" fill="#FFFFFF" stroke="#E5E7EB"/><text x="40" y="268" font-family="Inter, Arial" font-size="12" font-weight="bold" fill="#111827">Profile</text><text x="512" y="268" font-family="Inter, Arial" font-size="12" font-weight="bold" fill="#6B7280">▾</text><rect x="24" y="296" width="512" height="44" rx="10" fill="#FFFFFF" stroke="#E5E7EB"/><text x="40" y="324" font-family="Inter, Arial" font-size="12" font-weight="bold" fill="#111827">Education</text><text x="512" y="324" font-family="Inter, Arial" font-size="12" font-weight="bold" fill="#6B7280">▾</text><rect x="24" y="352" width="512" height="44" rx="10" fill="#FFFFFF" stroke="#E5E7EB"/><text x="40" y="380" font-family="Inter, Arial" font-size="12" font-weight="bold" fill="#111827">Employment</text><text x="512" y="380" font-family="Inter, Arial" font-size="12" font-weight="bold" fill="#6B7280">▾</text><rect x="24" y="408" width="512" height="280" rx="12" fill="#FFFFFF" stroke="#D1D5DB"/><text x="40" y="432" font-family="Inter, Arial" font-size="12" font-weight="bold" fill="#111827">Experience — Senior Frontend Engineer</text><rect x="40" y="452" width="480" height="140" rx="10" fill="#FFFFFF" stroke="#D1D5DB"/><rect x="40" y="596" width="480" height="24" rx="8" fill="#DBEAFE" stroke="#93C5FD"/><text x="48" y="612" font-family="Inter, Arial" font-size="10" font-weight="bold" fill="#1E3A8A">AI suggestions for this section</text><rect x="40" y="624" width="480" height="40" rx="10" fill="#FFFFFF" stroke="#D1D5DB"/><text x="52" y="650" font-family="Inter, Arial" font-size="11" font-weight="normal" fill="#111827">Suggestion 1…</text><rect x="434" y="632" width="70" height="24" rx="8" fill="#2563EB" stroke="#1E40AF"/><text x="454" y="648" font-family="Inter, Arial" font-size="11" font-weight="bold" fill="#FFFFFF">Apply</text><rect x="40" y="672" width="480" height="40" rx="10" fill="#FFFFFF" stroke="#D1D5DB"/><text x="52" y="698" font-family="Inter, Arial" font-size="11" font-weight="normal" fill="#111827">Suggestion 2…</text><rect x="434" y="680" width="70" height="24" rx="8" fill="#2563EB" stroke="#1E40AF"/><text x="454" y="696" font-family="Inter, Arial" font-size="11" font-weight="bold" fill="#FFFFFF">Apply</text><rect x="40" y="720" width="480" height="40" rx="10" fill="#FFFFFF" stroke="#D1D5DB"/><text x="52" y="746" font-family="Inter, Arial" font-size="11" font-weight="normal" fill="#111827">Suggestion 3…</text><rect x="434" y="728" width="70" height="24" rx="8" fill="#2563EB" stroke="#1E40AF"/><text x="454" y="744" font-family="Inter, Arial" font-size="11" font-weight="bold" fill="#FFFFFF">Apply</text><rect x="560" y="56" width="880" height="968" rx="0" fill="#FFFFFF" stroke="#FFFFFF"/><rect x="584" y="80" width="832" height="640" rx="12" fill="#FFFFFF" stroke="#D1D5DB"/><text x="600" y="108" font-family="Inter, Arial" font-size="12" font-weight="bold" fill="#111827">Preview — A4 canvas (1:1 token renderer)</text><rect x="638" y="140" width="724" height="520" rx="4" fill="#FFFFFF" stroke="#E5E7EB"/><rect x="584" y="736" width="832" height="56" rx="12" fill="#FFFFFF" stroke="#E5E7EB"/><rect x="600" y="746" width="140" height="36" rx="18" fill="#EFF6FF" stroke="#2563EB"/><text x="616" y="770" font-family="Inter, Arial" font-size="12" font-weight="bold" fill="#111827">▥ Templates</text><text x="764" y="770" font-family="Inter, Arial" font-size="12" font-weight="bold" fill="#111827">Aa Arial ▾   tT M ▾   ⟂ 1.25 ▾   ◈ ■ ▾</text><text x="1344" y="770" font-family="Inter, Arial" font-size="12" font-weight="bold" fill="#111827">⤢  ⤡</text>
</svg>