<svg xmlns="http://www.w3.org/2000/svg" width="1440" height="1024" viewBox="0 0 1440 1024">
  <title>Home</title>
  <rect width="100%" height="100%" fill="#FFFFFF"/>
  <rect x="120" y="0" width="78.0" height="1024" fill="#F3F4F6"/>
<rect x="222.0" y="0" width="78.0" height="1024" fill="#F3F4F6"/>
<rect x="324.0" y="0" width="78.0" height="1024" fill="#F3F4F6"/>
<rect x="426.0" y="0" width="78.0" height="1024" fill="#F3F4F6"/>
<rect x="528.0" y="0" width="78.0" height="1024" fill="#F3F4F6"/>
<rect x="630.0" y="0" width="78.0" height="1024" fill="#F3F4F6"/>
<rect x="732.0" y="0" width="78.0" height="1024" fill="#F3F4F6"/>
<rect x="834.0" y="0" width="78.0" height="1024" fill="#F3F4F6"/>
<rect x="936.0" y="0" width="78.0" height="1024" fill="#F3F4F6"/>
<rect x="1038.0" y="0" width="78.0" height="1024" fill="#F3F4F6"/>
<rect x="1140.0" y="0" width="78.0" height="1024" fill="#F3F4F6"/>
<rect x="1242.0" y="0" width="78.0" height="1024" fill="#F3F4F6"/>
  <rect x="0" y="0" width="1440" height="72" rx="8" fill="#FFFFFF" stroke="#E5E7EB" />
<text x="40" y="44" font-family="Inter, Arial" font-size="20" font-weight="bold" fill="#111827">AlignCV</text>
<text x="1160" y="44" font-family="Inter, Arial" font-size="16" font-weight="normal" fill="#374151">Templates   Pricing   Sign in</text>
<rect x="120" y="120" width="1200" height="280" rx="8" fill="#DBEAFE" stroke="#93C5FD" />
<text x="160" y="180" font-family="Inter, Arial" font-size="36" font-weight="bold" fill="#111827">Align your resume to every job.</text>
<text x="160" y="220" font-family="Inter, Arial" font-size="20" font-weight="normal" fill="#374151">LinkedIn import • AI suggestions • ATS‑friendly export</text>
<rect x="160" y="260" width="200" height="48" rx="8" fill="#2563EB" stroke="#06B6D4" />
<text x="190" y="292" font-family="Inter, Arial" font-size="16" font-weight="bold" fill="#FFFFFF">Start for free →</text>
<rect x="120" y="440" width="1200" height="200" rx="8" fill="#F9FAFB" stroke="#E5E7EB" />
<text x="140" y="480" font-family="Inter, Arial" font-size="20" font-weight="bold" fill="#111827">Steps / Feature highlights</text>
<rect x="120" y="660" width="1200" height="300" rx="8" fill="#F3F4F6" stroke="#E5E7EB" />
<text x="140" y="700" font-family="Inter, Arial" font-size="20" font-weight="bold" fill="#111827">Popular templates by city/role</text>
</svg>