<svg xmlns="http://www.w3.org/2000/svg" width="1440" height="900" viewBox="0 0 1440 900">
<title>Template Picker</title>
<rect width="100%" height="100%" fill="#FFFFFF"/>
['<rect x="0" y="0" width="1440" height="64" rx="0" fill="#FFFFFF" stroke="#E5E7EB" />', '<text x="24" y="40" font-family="Inter, Arial" font-size="20" font-weight="bold" fill="#111827">AlignCV — Template Picker</text>', '<rect x="0" y="64" width="240" height="836" rx="0" fill="#F9FAFB" stroke="#E5E7EB" />', '<text x="24" y="100" font-family="Inter, Arial" font-size="16" font-weight="bold" fill="#111827">Filters</text>', '<rect x="24" y="120" width="192" height="28" rx="6" fill="#FFFFFF" stroke="#D1D5DB" />', '<text x="32" y="139" font-family="Inter, Arial" font-size="12" font-weight="normal" fill="#111827">Locale: en-US</text>', '<rect x="24" y="154" width="192" height="28" rx="6" fill="#FFFFFF" stroke="#D1D5DB" />', '<text x="32" y="173" font-family="Inter, Arial" font-size="12" font-weight="normal" fill="#111827">Role: SWE</text>', '<rect x="240" y="64" width="1200" height="836" rx="0" fill="#FFFFFF" stroke="#E5E7EB" />', '<text x="268" y="108" font-family="Inter, Arial" font-size="24" font-weight="bold" fill="#111827">Choose a template</text>', '<rect x="268" y="140" width="260" height="180" rx="12" fill="#FFFFFF" stroke="#D1D5DB" />', '<text x="284" y="180" font-family="Inter, Arial" font-size="16" font-weight="bold" fill="#111827">Template 1</text>', '<rect x="548" y="140" width="260" height="180" rx="12" fill="#FFFFFF" stroke="#D1D5DB" />', '<text x="564" y="180" font-family="Inter, Arial" font-size="16" font-weight="bold" fill="#111827">Template 2</text>', '<rect x="828" y="140" width="260" height="180" rx="12" fill="#FFFFFF" stroke="#D1D5DB" />', '<text x="844" y="180" font-family="Inter, Arial" font-size="16" font-weight="bold" fill="#111827">Template 3</text>', '<rect x="1108" y="140" width="260" height="180" rx="12" fill="#FFFFFF" stroke="#D1D5DB" />', '<text x="1124" y="180" font-family="Inter, Arial" font-size="16" font-weight="bold" fill="#111827">Template 4</text>', '<rect x="268" y="340" width="260" height="180" rx="12" fill="#FFFFFF" stroke="#D1D5DB" />', '<text x="284" y="380" font-family="Inter, Arial" font-size="16" font-weight="bold" fill="#111827">Template 5</text>', '<rect x="548" y="340" width="260" height="180" rx="12" fill="#FFFFFF" stroke="#D1D5DB" />', '<text x="564" y="380" font-family="Inter, Arial" font-size="16" font-weight="bold" fill="#111827">Template 6</text>', '<rect x="828" y="340" width="260" height="180" rx="12" fill="#FFFFFF" stroke="#D1D5DB" />', '<text x="844" y="380" font-family="Inter, Arial" font-size="16" font-weight="bold" fill="#111827">Template 7</text>', '<rect x="1108" y="340" width="260" height="180" rx="12" fill="#FFFFFF" stroke="#D1D5DB" />', '<text x="1124" y="380" font-family="Inter, Arial" font-size="16" font-weight="bold" fill="#111827">Template 8</text>']
</svg>